<?xml version="1.0" encoding="iso-8859-1"?>
<!-- Generator: Adobe Illustrator 19.0.0, SVG Export Plug-In . SVG Version: 6.00 Build 0)  -->
<svg version="1.1" id="Capa_1" xmlns="http://www.w3.org/2000/svg" xmlns:xlink="http://www.w3.org/1999/xlink" x="0px" y="0px"
	 viewBox="0 0 512 512" style="enable-background:new 0 0 512 512;" xml:space="preserve">
<g>
	<g>
		<path style="fill:#2C3E50;" d="M132.414,211.862H70.621c-2.341-0.001-4.586-0.931-6.241-2.586l-25.423-25.423
			c-3.345-3.464-3.298-8.97,0.108-12.375c3.405-3.405,8.911-3.453,12.375-0.108l22.837,22.837h58.138
			c4.875,0,8.828,3.952,8.828,8.828S137.289,211.862,132.414,211.862z"/>
		<path style="fill:#2C3E50;" d="M45.197,343.217c-3.57-0.001-6.788-2.152-8.154-5.45c-1.366-3.298-0.611-7.094,1.913-9.619
			l25.423-25.423c1.655-1.656,3.9-2.586,6.241-2.586h61.793c4.875,0,8.828,3.952,8.828,8.828s-3.952,8.828-8.828,8.828H74.275
			L51.438,340.63C49.783,342.286,47.538,343.216,45.197,343.217z"/>
		<path style="fill:#2C3E50;" d="M132.414,264.828H52.966c-4.875,0-8.828-3.952-8.828-8.828s3.952-8.828,8.828-8.828h79.448
			c4.875,0,8.828,3.952,8.828,8.828S137.289,264.828,132.414,264.828z"/>
		<path style="fill:#2C3E50;" d="M441.379,211.862h-61.793c-4.875,0-8.828-3.952-8.828-8.828s3.952-8.828,8.828-8.828h58.138
			l22.837-22.837c3.464-3.345,8.97-3.298,12.375,0.108c3.405,3.405,3.453,8.911,0.108,12.375l-25.423,25.423
			C445.965,210.931,443.72,211.862,441.379,211.862z"/>
		<path style="fill:#2C3E50;" d="M466.803,343.217c-2.341,0-4.586-0.931-6.241-2.586l-22.837-22.837h-58.138
			c-4.875,0-8.828-3.952-8.828-8.828s3.952-8.828,8.828-8.828h61.793c2.341,0,4.586,0.931,6.241,2.586l25.423,25.423
			c2.524,2.525,3.279,6.321,1.913,9.619C473.591,341.065,470.373,343.216,466.803,343.217z"/>
		<path style="fill:#2C3E50;" d="M459.034,264.828h-79.448c-4.875,0-8.828-3.952-8.828-8.828s3.952-8.828,8.828-8.828h79.448
			c4.875,0,8.828,3.952,8.828,8.828S463.91,264.828,459.034,264.828z"/>
		<path style="fill:#2C3E50;" d="M203.034,176.552c-4.875,0-8.828-3.952-8.828-8.828v-49.311l-49.32-49.32
			c-3.345-3.464-3.298-8.97,0.108-12.375c3.405-3.405,8.911-3.453,12.375-0.108l51.906,51.906c1.656,1.655,2.586,3.9,2.586,6.241
			v52.966C211.862,172.599,207.91,176.552,203.034,176.552z"/>
		<path style="fill:#2C3E50;" d="M308.966,176.552c-4.875,0-8.828-3.952-8.828-8.828v-52.966c0-2.341,0.931-4.586,2.586-6.241
			l51.906-51.906c3.464-3.345,8.97-3.298,12.375,0.108c3.405,3.405,3.453,8.911,0.108,12.375l-49.32,49.32v49.311
			C317.793,172.599,313.841,176.552,308.966,176.552z"/>
		<path style="fill:#2C3E50;" d="M256,176.552c-4.875,0-8.828-3.952-8.828-8.828V70.621c0-4.875,3.952-8.828,8.828-8.828
			s8.828,3.952,8.828,8.828v97.103C264.828,172.599,260.875,176.552,256,176.552z"/>
	</g>
	<path style="fill:#46B29D;" d="M361.931,167.724c9.751,0,17.655,7.904,17.655,17.655v113.126c0,0,0,116.886-123.586,187.012
		c-123.586-70.126-123.586-187.012-123.586-187.012V185.379c0-9.751,7.904-17.655,17.655-17.655H361.931z"/>
	<path style="fill:#65DDB9;" d="M256,443.966c-87.208-59.445-88.276-144.561-88.276-145.47v-95.462h176.552v95.462
		C344.223,301.992,341.901,385.404,256,443.966z"/>
	<g>
		<path style="fill:#FFFFFF;" d="M256,452.785c-3.873,0.001-7.294-2.522-8.437-6.222c-1.143-3.7,0.26-7.714,3.459-9.897
			c82.176-56.011,84.374-134.974,84.427-138.293v-86.51c-4.875,0-8.828-3.952-8.828-8.828s3.952-8.828,8.828-8.828
			c9.751,0,17.655,7.904,17.655,17.655v86.634c-0.062,3.849-2.489,91.648-92.134,152.717
			C259.509,452.225,257.777,452.773,256,452.785z"/>
		<path style="fill:#FFFFFF;" d="M203.034,401.885c-2.833,0.004-5.496-1.352-7.159-3.646c-21.662-29-34.501-63.631-36.979-99.743
			v-86.634c0-9.751,7.904-17.655,17.655-17.655h97.103c4.875,0,8.828,3.952,8.828,8.828s-3.952,8.828-8.828,8.828h-97.103v86.634
			c2.543,32.372,14.204,63.362,33.633,89.379c1.948,2.687,2.225,6.239,0.716,9.195C209.392,400.026,206.353,401.886,203.034,401.885
			z"/>
	</g>
	<g>
		<path style="fill:#FF5364;" d="M237.241,344.276c-2.341,0-4.586-0.931-6.241-2.586l-16.552-16.552
			c-3.345-3.464-3.298-8.97,0.108-12.375c3.405-3.405,8.911-3.453,12.375-0.108l10.311,10.311l65.483-65.483
			c3.464-3.345,8.97-3.298,12.375,0.108c3.405,3.405,3.453,8.911,0.108,12.375l-71.724,71.724
			C241.827,343.345,239.582,344.275,237.241,344.276z"/>
		<circle style="fill:#FF5364;" cx="26.483" cy="158.897" r="26.483"/>
		<circle style="fill:#FF5364;" cx="132.414" cy="44.138" r="26.483"/>
		<circle style="fill:#FF5364;" cx="256" cy="44.138" r="26.483"/>
		<circle style="fill:#FF5364;" cx="26.483" cy="256" r="26.483"/>
		<circle style="fill:#FF5364;" cx="26.483" cy="353.103" r="26.483"/>
		<circle style="fill:#FF5364;" cx="485.517" cy="158.897" r="26.483"/>
		<circle style="fill:#FF5364;" cx="485.517" cy="256" r="26.483"/>
		<circle style="fill:#FF5364;" cx="485.517" cy="353.103" r="26.483"/>
		<circle style="fill:#FF5364;" cx="379.586" cy="44.138" r="26.483"/>
	</g>
	<path style="fill:#2C3E50;" d="M317.793,494.345H194.207c-4.875,0-8.828-3.952-8.828-8.828s3.952-8.828,8.828-8.828h123.586
		c4.875,0,8.828,3.952,8.828,8.828S322.668,494.345,317.793,494.345z"/>
</g>
<g>
</g>
<g>
</g>
<g>
</g>
<g>
</g>
<g>
</g>
<g>
</g>
<g>
</g>
<g>
</g>
<g>
</g>
<g>
</g>
<g>
</g>
<g>
</g>
<g>
</g>
<g>
</g>
<g>
</g>
</svg>
