<svg xmlns="http://www.w3.org/2000/svg" height="594pt" version="1.1" viewBox="0 -35 594.62531 594" width="594pt">
<g id="surface1">
<path d="M 319.25 21.886719 L 316.679688 23.378906 L 319.25 21.886719 C 312.398438 10 297.21875 5.910156 285.332031 12.757812 C 281.535156 14.945312 278.390625 18.089844 276.203125 21.886719 L 13.8125 476.101562 C 8.113281 483.75 7.324219 494 11.78125 502.429688 C 15.957031 510.746094 24.503906 515.964844 33.8125 515.863281 L 561.460938 515.863281 C 575.144531 515.820312 586.199219 504.691406 586.15625 491.007812 C 586.144531 486.722656 585.015625 482.507812 582.890625 478.789062 Z M 297.578125 362.785156 C 275.664062 362.75 257.910156 344.996094 257.875 323.085938 L 257.875 165.054688 C 257.875 143.113281 275.664062 125.320312 297.605469 125.320312 C 319.546875 125.320312 337.339844 143.113281 337.339844 165.054688 L 337.339844 323.027344 C 337.339844 344.984375 319.542969 362.785156 297.578125 362.785156 Z M 297.578125 384.398438 C 319.503906 384.398438 337.277344 402.171875 337.277344 424.101562 C 337.277344 446.03125 319.503906 463.804688 297.578125 463.804688 C 275.648438 463.804688 257.875 446.03125 257.875 424.101562 C 257.875 402.167969 275.640625 384.375 297.578125 384.339844 Z M 297.578125 384.398438 " style=" stroke:none;fill-rule:nonzero;fill:rgb(100%,86.27451%,25.882353%);fill-opacity:1;" />
<path d="M 297.578125 131.203125 C 278.960938 131.238281 263.878906 146.320312 263.84375 164.933594 L 263.84375 323.023438 C 263.84375 341.667969 278.960938 356.785156 297.605469 356.785156 C 316.25 356.785156 331.367188 341.667969 331.367188 323.023438 L 331.367188 165.054688 C 331.402344 146.390625 316.300781 131.238281 297.636719 131.203125 C 297.617188 131.203125 297.601562 131.203125 297.578125 131.203125 Z M 297.578125 131.203125 " style=" stroke:none;fill-rule:nonzero;fill:rgb(17.647059%,63.921569%,100%);fill-opacity:1;" />
<path d="M 331.308594 424.101562 C 331.308594 442.730469 316.207031 457.832031 297.578125 457.832031 C 278.949219 457.832031 263.84375 442.730469 263.84375 424.101562 C 263.84375 405.472656 278.949219 390.371094 297.578125 390.371094 C 316.207031 390.371094 331.308594 405.472656 331.308594 424.101562 Z M 331.308594 424.101562 " style=" stroke:none;fill-rule:nonzero;fill:rgb(17.647059%,63.921569%,100%);fill-opacity:1;" />
<path d="M 297.578125 463.800781 C 275.636719 463.800781 257.84375 446.011719 257.84375 424.070312 C 257.84375 402.128906 275.636719 384.339844 297.578125 384.339844 L 297.578125 362.785156 C 275.664062 362.75 257.910156 344.996094 257.875 323.085938 L 257.875 165.054688 C 257.839844 143.09375 275.617188 125.269531 297.578125 125.234375 L 297.578125 9.289062 C 288.746094 9.253906 280.574219 13.976562 276.203125 21.648438 L 13.8125 476.101562 C 8.113281 483.75 7.324219 494 11.78125 502.429688 C 15.957031 510.746094 24.503906 515.964844 33.8125 515.863281 L 297.574219 515.863281 L 297.574219 463.800781 Z M 297.578125 463.800781 " style=" stroke:none;fill-rule:nonzero;fill:rgb(96.862745%,76.078431%,24.313725%);fill-opacity:1;" />
<path d="M 297.578125 131.203125 C 278.960938 131.238281 263.878906 146.320312 263.84375 164.933594 L 263.84375 323.023438 C 263.84375 341.664062 278.9375 356.78125 297.578125 356.816406 Z M 297.578125 131.203125 " style=" stroke:none;fill-rule:nonzero;fill:rgb(18.039216%,55.294118%,100%);fill-opacity:1;" />
<path d="M 263.84375 424.101562 C 263.882812 442.714844 278.960938 457.804688 297.578125 457.832031 L 297.578125 390.308594 C 278.9375 390.339844 263.84375 405.460938 263.84375 424.101562 Z M 263.84375 424.101562 " style=" stroke:none;fill-rule:nonzero;fill:rgb(18.039216%,55.294118%,100%);fill-opacity:1;" />
<path d="M 590.65625 474.191406 L 327.011719 17.410156 C 321.058594 6.773438 309.769531 0.222656 297.578125 0.335938 C 285.535156 0.269531 274.398438 6.707031 268.441406 17.171875 L 6.230469 471.503906 C -1.113281 481.84375 -2.039062 495.433594 3.84375 506.667969 C 9.515625 517.933594 21.078125 525.015625 33.695312 524.9375 L 561.339844 524.9375 C 579.964844 524.902344 595.042969 509.765625 595 491.132812 C 594.988281 485.269531 593.449219 479.515625 590.535156 474.429688 Z M 580.265625 501.832031 C 576.425781 508.605469 569.238281 512.777344 561.460938 512.757812 L 33.8125 512.757812 C 25.609375 512.808594 18.101562 508.175781 14.46875 500.820312 C 10.566406 493.367188 11.28125 484.335938 16.320312 477.59375 L 279.011719 22.84375 C 282.882812 16.277344 289.953125 12.257812 297.578125 12.277344 C 305.421875 12.25 312.664062 16.476562 316.503906 23.320312 L 580.148438 480.042969 C 584.140625 486.746094 584.1875 495.085938 580.265625 501.832031 Z M 580.265625 501.832031 " style=" stroke:none;fill-rule:nonzero;fill:rgb(6.27451%,12.156863%,47.843137%);fill-opacity:1;" />
<path d="M 297.578125 122.308594 C 274.011719 122.34375 254.925781 141.429688 254.890625 164.992188 L 254.890625 323.027344 C 254.890625 346.621094 274.011719 365.742188 297.605469 365.742188 C 321.199219 365.742188 340.324219 346.621094 340.324219 323.027344 L 340.324219 165.054688 C 340.324219 141.445312 321.1875 122.308594 297.578125 122.308594 Z M 328.324219 323.027344 C 328.324219 340.023438 314.542969 353.800781 297.546875 353.800781 C 280.550781 353.800781 266.769531 340.023438 266.769531 323.027344 L 266.769531 165.054688 C 266.769531 148.058594 280.550781 134.277344 297.546875 134.277344 C 314.542969 134.277344 328.324219 148.058594 328.324219 165.054688 Z M 328.324219 323.027344 " style=" stroke:none;fill-rule:nonzero;fill:rgb(6.27451%,12.156863%,47.843137%);fill-opacity:1;" />
<path d="M 297.578125 381.355469 C 274 381.355469 254.890625 400.464844 254.890625 424.042969 C 254.890625 447.617188 274 466.726562 297.578125 466.726562 C 321.152344 466.726562 340.261719 447.617188 340.261719 424.042969 C 340.234375 400.476562 321.140625 381.382812 297.578125 381.355469 Z M 297.578125 454.847656 C 280.597656 454.847656 266.832031 441.078125 266.832031 424.101562 C 266.832031 407.121094 280.597656 393.355469 297.578125 393.355469 C 314.554688 393.355469 328.324219 407.121094 328.324219 424.101562 C 328.292969 441.066406 314.542969 454.8125 297.578125 454.847656 Z M 297.578125 454.847656 " style=" stroke:none;fill-rule:nonzero;fill:rgb(6.27451%,12.156863%,47.843137%);fill-opacity:1;" />
</g>
</svg>