<?xml version="1.0"?>
<svg xmlns="http://www.w3.org/2000/svg" height="512px" viewBox="-72 0 480 480" width="512px"><path d="m320 160h-24v-40c-.074219-66.242188-53.757812-119.9257812-120-120h-16c-66.242188.0742188-119.925781 53.757812-120 120v40h-24c-8.835938 0-16 7.164062-16 16v288c0 8.835938 7.164062 16 16 16h304c8.835938 0 16-7.164062 16-16v-288c0-8.835938-7.164062-16-16-16zm-264-40c.066406-57.410156 46.589844-103.933594 104-104h16c57.410156.066406 103.933594 46.589844 104 104v40h-224zm-40 344v-288h304v288zm0 0" fill="#FFFFFF"/><path d="m176 208h-16v16h-56v104h112v72h-96v-8h-16v24h56v16h16v-16h56v-104h-112v-72h96v8h16v-24h-56zm0 0" fill="#FFFFFF"/><path d="m264 296h16v16h-16zm0 0" fill="#FFFFFF"/><path d="m264 328h16v16h-16zm0 0" fill="#FFFFFF"/><path d="m248 312h16v16h-16zm0 0" fill="#FFFFFF"/><path d="m280 312h16v16h-16zm0 0" fill="#FFFFFF"/><path d="m56 296h16v16h-16zm0 0" fill="#FFFFFF"/><path d="m56 328h16v16h-16zm0 0" fill="#FFFFFF"/><path d="m40 312h16v16h-16zm0 0" fill="#FFFFFF"/><path d="m72 312h16v16h-16zm0 0" fill="#FFFFFF"/></svg>
